<?xml version="1.0" encoding="UTF-8" standalone="no"?>
<svg width="121px" height="121px" viewBox="0 0 121 121" version="1.1" xmlns="http://www.w3.org/2000/svg" xmlns:xlink="http://www.w3.org/1999/xlink" xmlns:sketch="http://www.bohemiancoding.com/sketch/ns">
    <!-- Generator: Sketch 3.4.4 (17249) - http://www.bohemiancoding.com/sketch -->
    <title>mic-illustration</title>
    <desc>Created with Sketch.</desc>
    <defs>
        <circle id="path-1" cx="60.2734606" cy="60.2734606" r="60.2734606"></circle>
    </defs>
    <g id="Page-1" stroke="none" stroke-width="1" fill="none" fill-rule="evenodd" sketch:type="MSPage">
        <g id="Launch-screen" sketch:type="MSArtboardGroup" transform="translate(-100.000000, -195.000000)">
            <g id="Content" sketch:type="MSLayerGroup" transform="translate(-19.000000, 63.000000)">
                <g id="Rock-the-mic" transform="translate(119.000000, 132.000000)">
                    <mask id="mask-2" sketch:name="Oval 18" fill="white">
                        <use xlink:href="#path-1"></use>
                    </mask>
                    <use id="Oval-18" fill="#2997A4" sketch:type="MSShapeGroup" xlink:href="#path-1"></use>
                    <path d="M97.4189269,66.5594153 C97.4189269,66.5594153 112.766524,75.8893543 85.6085442,95.9194322 C66.3707285,110.107969 60.7331075,117.847153 79.2554901,120.738427 C79.2554901,120.738427 50.325113,124.666292 87.2492052,96.0368016 C87.2492052,96.0368016 114.952774,78.7269795 97.9153457,64.6952775" id="Shape" fill-opacity="0.4" fill="#000000" sketch:type="MSShapeGroup" mask="url(#mask-2)"></path>
                    <path d="M78.1708394,56.1490405 L97.688874,62.498563 C97.688874,62.498563 98.4248699,63.9621865 97.8150152,66.0851663 C97.2082573,68.198131 95.8785097,69.1932969 95.8785097,69.1932969 L76.0165287,64.0539568" id="Shape" fill-opacity="0.4" fill="#000000" sketch:type="MSShapeGroup" mask="url(#mask-2)"></path>
                    <path d="M72.516205,54.6857451 L91.7712447,60.4221031 C91.7712447,60.4221031 92.2936548,62.2945029 91.6920176,64.4174827 C91.0934354,66.5304474 89.9852741,67.7300015 89.9852741,67.7300015 L70.3911261,62.5906614" id="Shape" fill-opacity="0.4" fill="#000000" sketch:type="MSShapeGroup" mask="url(#mask-2)"></path>
                    <path d="M40.4785347,43.1047841 C41.1189219,45.4002989 41.1767104,47.8910412 40.5199293,50.360639 C39.863763,52.8294156 38.5774556,54.9604958 36.8837595,56.6323498 L87.0735182,67.3940892 C87.0735182,67.3940892 88.2624867,66.3594447 89.0420173,63.3306462 C89.823802,60.2930204 89.3912076,58.6755673 89.3912076,58.6755673 L40.4785347,43.1047841 L40.4785347,43.1047841 Z" id="Shape" fill="#FF6B3D" sketch:type="MSShapeGroup" mask="url(#mask-2)"></path>
                    <path d="M44.9801945,58.1546879 C44.9801945,58.1546879 47.0734305,49.1246807 46.0708217,47.6028036 L48.1288081,58.8478522 C48.1288081,58.8478522 46.8798742,58.3068756 44.9801945,58.1546879 L44.9801945,58.1546879 Z" id="Shape" fill-opacity="0.1" fill="#000000" sketch:type="MSShapeGroup" mask="url(#mask-2)"></path>
                    <path d="M41.8315809,44.45419 L87.7113793,59.1854154 L87.3459988,60.64706 L41.8671779,47.7727616 C41.8673824,47.7727616 42.1936881,45.8918967 41.8315809,44.45419 L41.8315809,44.45419 Z" id="Shape" opacity="0.4" fill="#FFFFFF" sketch:type="MSShapeGroup" mask="url(#mask-2)"></path>
                    <path d="M27.2130177,61.0968619 C34.7897901,61.0968619 40.931977,54.8539834 40.931977,47.1530017 C40.931977,39.4520199 34.7897901,33.2091414 27.2130177,33.2091414 C19.6362453,33.2091414 13.4940583,39.4520199 13.4940583,47.1530017 C13.4940583,54.8539834 19.6362453,61.0968619 27.2130177,61.0968619 Z" id="Oval" fill="#0D3B40" sketch:type="MSShapeGroup" mask="url(#mask-2)"></path>
                    <path d="M14.3954527,53.0004269 C14.3954527,53.0004269 26.8081054,64.9473157 39.1327692,53.6923254 C39.1327692,53.6923254 35.8521271,60.5765424 27.5672948,61.0732535 C19.2820483,61.5699646 14.2851042,54.0757872 14.3954527,53.0004269 L14.3954527,53.0004269 Z" id="Shape" fill-opacity="0.25" fill="#000000" sketch:type="MSShapeGroup" mask="url(#mask-2)"></path>
                    <path d="M54.5148474,74.0889381 C54.5148474,74.0889381 57.4248536,85.79376 53.3807506,101.734726 C49.3366476,117.675692 53.9231537,126.804874 54.3967986,132.600731 L76.4663306,134.414579 C76.4663306,134.414579 72.4255412,110.640975 72.3774933,93.176631 C72.3294454,75.6143688 75.3490092,70.9925047 75.3490092,70.9925047 L55.2560695,73.3971468 L54.5148474,74.0889381 L54.5148474,74.0889381 Z" id="Shape" fill="#FFC9B8" sketch:type="MSShapeGroup" mask="url(#mask-2)"></path>
                    <path d="M82.7405919,47.6288164 C82.9099022,44.7409774 80.7094833,42.2623771 77.8260911,42.0928178 C77.4823524,42.0725198 77.145165,42.0878971 76.8163715,42.1321834 C74.6003933,42.2107097 73.2254386,40.3650351 73.0874518,40.1712823 C72.2191994,38.7822082 70.7164943,37.8195952 68.9584931,37.7162604 C68.0509329,37.6627477 67.1855468,37.8474792 66.4182254,38.2118164 C66.39591,38.2118164 66.3719568,38.2165321 66.3443185,38.2317043 C64.2812723,39.346244 61.9395909,38.7567845 61.3749505,38.5880453 C60.884217,38.3990082 60.3564276,38.2809113 59.8030473,38.2483116 C58.8135958,38.1902883 57.8726649,38.4119251 57.0564135,38.8447421 C57.0334839,38.8480226 57.0101449,38.8545835 56.9870106,38.8681155 C54.7988755,40.1448335 52.8809815,40.7582814 51.1567605,40.5604281 C50.9573552,40.525163 50.7542648,40.5001494 50.5474893,40.4880527 C50.2076405,40.4679598 49.8737287,40.4821069 49.5488251,40.5253681 C49.4792175,40.517782 49.4413427,40.5124512 49.4413427,40.5124512 L49.4628392,40.5370547 C47.0675191,40.8954461 44.8773366,41.9972741 45.2546507,44.3914023 C45.5070806,45.9928868 46.1632345,46.9583703 46.6707558,51.9715439 C46.8500977,53.7452532 47.2188132,56.220368 46.7817185,58.5931731 L42.2813828,57.7379956 C42.2934618,57.8714697 48.4713405,73.0089947 55.3203182,74.1259948 C55.3203182,74.1259948 69.9184637,77.0070679 74.4793989,74.3964286 C79.5687377,71.483166 83.0826928,52.7354834 82.7405919,47.6288164 L82.7405919,47.6288164 Z" id="Shape" fill="#FFC9B8" sketch:type="MSShapeGroup" mask="url(#mask-2)"></path>
                    <path d="M42.2813828,57.9482483 C42.2813828,57.9482483 43.2363577,60.342885 43.5091199,60.4105083 C43.5091199,60.4105083 45.0182134,61.1127347 45.9050488,60.0973697 C46.6953023,59.1924765 46.7794023,58.7952657 46.7794023,58.7952657 L42.289977,57.9821615" id="Shape" fill-opacity="0.1" fill="#000000" sketch:type="MSShapeGroup" mask="url(#mask-2)"></path>
                </g>
            </g>
        </g>
    </g>
</svg>